<svg width="150" height="150" viewBox="0 0 150 150" fill="none" xmlns="http://www.w3.org/2000/svg">
<g clip-path="url(#clip0_8_11)">
<path d="M75.22 141.16C64.66 141.16 55.42 139.6 47.5 136.48C39.58 133.24 33.4 128.74 28.96 122.98C24.52 117.1 22.3 110.26 22.3 102.46C22.3 94.66 24.46 88.06 28.78 82.66C33.22 77.14 39.4 73 47.32 70.24C55.24 67.36 64.54 65.92 75.22 65.92C86.02 65.92 95.38 67.36 103.3 70.24C111.34 73 117.52 77.14 121.84 82.66C126.28 88.06 128.5 94.66 128.5 102.46C128.5 110.26 126.28 117.1 121.84 122.98C117.4 128.74 111.16 133.24 103.12 136.48C95.2 139.6 85.9 141.16 75.22 141.16ZM75.22 119.74C82.54 119.74 88.3 118.12 92.5 114.88C96.82 111.64 98.98 107.2 98.98 101.56C98.98 95.92 96.82 91.54 92.5 88.42C88.3 85.18 82.54 83.56 75.22 83.56C68.02 83.56 62.32 85.18 58.12 88.42C53.92 91.54 51.82 95.92 51.82 101.56C51.82 107.2 53.92 111.64 58.12 114.88C62.32 118.12 68.02 119.74 75.22 119.74ZM75.22 80.68C65.5 80.68 56.98 79.36 49.66 76.72C42.46 74.08 36.82 70.24 32.74 65.2C28.78 60.04 26.8 53.92 26.8 46.84C26.8 39.4 28.84 33.04 32.92 27.76C37 22.36 42.7 18.22 50.02 15.34C57.34 12.34 65.74 10.84 75.22 10.84C84.94 10.84 93.4 12.34 100.6 15.34C107.92 18.22 113.62 22.36 117.7 27.76C121.9 33.04 124 39.4 124 46.84C124 53.92 121.96 60.04 117.88 65.2C113.92 70.24 108.28 74.08 100.96 76.72C93.64 79.36 85.06 80.68 75.22 80.68ZM75.22 63.58C81.34 63.58 86.14 62.2 89.62 59.44C93.22 56.68 95.02 52.9 95.02 48.1C95.02 43.06 93.16 39.16 89.44 36.4C85.84 33.64 81.1 32.26 75.22 32.26C69.46 32.26 64.78 33.64 61.18 36.4C57.58 39.16 55.78 43.06 55.78 48.1C55.78 52.9 57.52 56.68 61 59.44C64.48 62.2 69.22 63.58 75.22 63.58Z" fill="white"/>
</g>
<defs>
<clipPath id="clip0_8_11">
<rect width="150" height="150" fill="white"/>
</clipPath>
</defs>
</svg>
