<svg width="16" height="16" viewBox="0 0 16 16" fill="none" xmlns="http://www.w3.org/2000/svg">
<rect width="16" height="16" fill="white"/>
<path d="M3 1.5H4Z" fill="black"/>
<path d="M3 1.5H4" stroke="black"/>
<path d="M4 1.5H5ZM10 2.5H11ZM13 3.5H14Z" fill="black"/>
<path d="M4 1.5H5M10 2.5H11M13 3.5H14" stroke="black"/>
<path d="M11 1.5H12ZM13 2.5H14ZM3 3.5H4ZM9 3.5H10ZM2 7.5H3ZM2 11.5H3ZM6 11.5H7Z" fill="black"/>
<path d="M11 1.5H12M13 2.5H14M3 3.5H4M9 3.5H10M2 7.5H3M2 11.5H3M6 11.5H7" stroke="black"/>
<path d="M12 1.5H13ZM4 3.5H5ZM5 10.5H6ZM9 11.5H10ZM9 13.5H10Z" fill="black"/>
<path d="M12 1.5H13M4 3.5H5M5 10.5H6M9 11.5H10M9 13.5H10" stroke="black"/>
<path d="M2 2.5H3ZM5 2.5H6ZM5 3.5H7ZM10 3.5H13ZM13 4.5H14ZM2 5.5H3ZM2 6.5H3ZM13 6.5H14ZM4 7.5H6ZM9 7.5H10ZM13 7.5H14ZM2 9.5H3ZM13 9.5H14ZM2 10.5H3ZM7 10.5H8ZM9 10.5H10ZM7 11.5H8ZM2 12.5H3ZM13 12.5H14ZM2 13.5H6ZM11 13.5H12ZM13 13.5H14Z" fill="black"/>
<path d="M2 2.5H3M5 2.5H6M5 3.5H7M10 3.5H13M13 4.5H14M2 5.5H3M2 6.5H3M13 6.5H14M4 7.5H6M9 7.5H10M13 7.5H14M2 9.5H3M13 9.5H14M2 10.5H3M7 10.5H8M9 10.5H10M7 11.5H8M2 12.5H3M13 12.5H14M2 13.5H6M11 13.5H12M13 13.5H14" stroke="black"/>
<path d="M2 3.5H3ZM2 4.5H3ZM13 8.5H14ZM13 10.5H14ZM13 11.5H14ZM10 13.5H11ZM12 13.5H13Z" fill="black"/>
<path d="M2 3.5H3M2 4.5H3M13 8.5H14M13 10.5H14M13 11.5H14M10 13.5H11M12 13.5H13" stroke="black"/>
<path d="M7 3.5H9ZM13 5.5H14ZM10 7.5H11ZM2 8.5H3ZM5 11.5H6ZM8 11.5H9Z" fill="black"/>
<path d="M7 3.5H9M13 5.5H14M10 7.5H11M2 8.5H3M5 11.5H6M8 11.5H9" stroke="black"/>
</svg>
