<svg width="518" height="166" viewBox="0 0 518 166" fill="none" xmlns="http://www.w3.org/2000/svg">
<path d="M188.312 102V72H194.312V76H196.312V74H198.312V72H204.312V74H206.312V76H210.312V74H212.312V72H220.312V74H222.312V76H224.312V80H226.312V102H220.312V80H218.312V78H212.312V80H210.312V102H204.312V80H202.312V78H198.312V80H196.312V82H194.312V102H188.312ZM232.875 102V72H238.875V102H232.875ZM232.875 68V62H238.875V68H232.875ZM245.188 94V80H247.188V76H249.188V74H253.188V72H261.188V74H265.188V76H267.188V82H263.188V80H261.188V78H253.188V80H251.188V94H253.188V96H261.188V94H263.188V92H267.188V98H265.188V100H261.188V102H253.188V100H249.188V98H247.188V94H245.188ZM272.75 94V80H274.75V76H276.75V74H280.75V72H288.75V74H290.75V76H292.75V72H298.75V102H292.75V98H290.75V100H288.75V102H280.75V100H276.75V98H274.75V94H272.75ZM278.75 94H280.75V96H288.75V94H290.75V92H292.75V82H290.75V80H288.75V78H280.75V80H278.75V94ZM305.5 102V62H311.5V76H313.5V74H315.5V72H323.5V74H327.5V76H329.5V80H331.5V102H325.5V80H323.5V78H315.5V80H313.5V82H311.5V102H305.5ZM337.125 94V80H339.125V76H341.125V74H345.125V72H353.125V74H357.125V76H359.125V80H361.125V88H343.125V94H345.125V96H353.125V94H355.125V92H361.125V96H359.125V98H357.125V100H353.125V102H345.125V100H341.125V98H339.125V94H337.125ZM343.125 84H355.125V80H353.125V78H345.125V80H343.125V84ZM366.125 94V80H368.125V76H370.125V74H374.125V72H382.125V74H384.125V76H386.125V62H392.125V102H386.125V98H384.125V100H382.125V102H374.125V100H370.125V98H368.125V94H366.125ZM372.125 94H374.125V96H382.125V94H384.125V92H386.125V82H384.125V80H382.125V78H374.125V80H372.125V94ZM396.75 94V80H398.75V76H400.75V74H404.75V72H412.75V74H416.75V76H418.75V80H420.75V88H402.75V94H404.75V96H412.75V94H414.75V92H420.75V96H418.75V98H416.75V100H412.75V102H404.75V100H400.75V98H398.75V94H396.75ZM402.75 84H414.75V80H412.75V78H404.75V80H402.75V84ZM425.75 78V72H431.75V76H433.75V84H435.75V90H437.75V96H439.75V90H441.75V84H443.75V76H445.75V72H451.75V78H449.75V84H447.75V92H445.75V98H443.75V102H433.75V98H431.75V92H429.75V84H427.75V78H425.75ZM455.812 102V96H461.812V102H455.812Z" fill="black"/>
<path d="M42.375 80V77H45.375V74H48.375V47H51.375V44H54.375V41H66.375V44H60.375V47H57.375V71H54.375V74H51.375V77H48.375V80H51.375V83H54.375V86H57.375V113H60.375V116H66.375V119H54.375V116H51.375V113H48.375V83H45.375V80H42.375ZM75.4688 65V53H78.4688V50H84.4688V53H81.4688V59H84.4688V65H75.4688ZM93.2812 89V80H126.281V89H93.2812ZM132.562 65V62H135.562V56H132.562V50H141.562V62H138.562V65H132.562ZM146.156 116H152.156V113H155.156V86H158.156V83H161.156V80H164.156V77H161.156V74H158.156V71H155.156V47H152.156V44H146.156V41H158.156V44H161.156V47H164.156V74H167.156V77H170.156V80H167.156V83H164.156V113H161.156V116H158.156V119H146.156V116Z" fill="black"/>
</svg>
