<svg width="200" height="200" viewBox="0 0 200 200" fill="none" xmlns="http://www.w3.org/2000/svg">
<path d="M33.5156 98.75V95.625H36.6406V92.5H39.7656V64.375H42.8906V61.25H46.0156V58.125H58.5156V61.25H52.2656V64.375H49.1406V89.375H46.0156V92.5H42.8906V95.625H39.7656V98.75H42.8906V101.875H46.0156V105H49.1406V133.125H52.2656V136.25H58.5156V139.375H46.0156V136.25H42.8906V133.125H39.7656V101.875H36.6406V98.75H33.5156ZM67.9883 83.125V70.625H71.1133V67.5H77.3633V70.625H74.2383V76.875H77.3633V83.125H67.9883ZM86.543 108.125V98.75H120.918V108.125H86.543ZM127.461 83.125V80H130.586V73.75H127.461V67.5H136.836V80H133.711V83.125H127.461ZM141.621 136.25H147.871V133.125H150.996V105H154.121V101.875H157.246V98.75H160.371V95.625H157.246V92.5H154.121V89.375H150.996V64.375H147.871V61.25H141.621V58.125H154.121V61.25H157.246V64.375H160.371V92.5H163.496V95.625H166.621V98.75H163.496V101.875H160.371V133.125H157.246V136.25H154.121V139.375H141.621V136.25Z" fill="black"/>
</svg>
